<svg xmlns="http://www.w3.org/2000/svg" width="500" height="500" style=""><rect id="backgroundrect" width="100%" height="100%" x="0" y="0" fill="none" stroke="none"/><title>ouline</title><g class="currentLayer" style=""><title>Layer 1</title><g id="Layer_2" data-name="Layer 2" class="selected" fill="#000" fill-opacity="1"><g id="Layer_1-2" data-name="Layer 1" fill="#000" fill-opacity="1"><path d="M154.83,108.47c0,23.56-18.21,42.84-43,42.84-23.57,0-42.23-18.82-42.23-42.69a42.51,42.51,0,0,1,42.07-42.84C135.4,65.78,154.83,84.45,154.83,108.47Zm-64.72,0C90.11,122.24,98.83,132,112,132c12.55,0,22.34-9.18,22.34-23.41,0-13.77-9-23.56-22.34-23.56C99.29,85.06,90.11,95,90.11,108.47ZM187.2,114c-13-6.58-19.59-14.54-19.59-24.78,0-12.71,10.72-23.42,26.32-23.42A33,33,0,0,1,220.7,79.25L208.16,92c-4.59-4.59-9.18-7.5-14.07-7.5-4.14,0-7.35,1.68-7.35,4.89,0,3.06,2.91,4.44,7.35,6.74l7.49,3.82c13.47,6.89,20.66,13.93,20.66,26,0,14.54-11.48,25.4-29.22,25.4-11.79,0-21.43-4.74-28.47-13.92l12.55-13.77c4.75,5.5,11.63,9.48,17,9.48,5,0,9-2.9,9-6.57s-3.37-6.13-9-9ZM69.61,195.43h20l16.23,46.21,17.59-46.21h12.24L153,241l16.37-45.6h20l-29.54,81.25h-13l-17.29-46.36-17.9,46.36H99ZM280.27,236c0,23.56-18.2,42.84-43,42.84-23.56,0-42.23-18.81-42.23-42.68a42.51,42.51,0,0,1,42.07-42.85C260.84,193.29,280.27,212,280.27,236Zm-64.72,0c0,13.77,8.72,23.56,21.88,23.56,12.55,0,22.34-9.18,22.34-23.4,0-13.78-9-23.57-22.34-23.57C224.73,212.57,215.55,222.52,215.55,236Zm97.31-30.29c3.82-8.42,10.4-12.4,17.14-12.4a19.27,19.27,0,0,1,8.87,2.14l-6.28,17.45a14.35,14.35,0,0,0-6-1.69c-5.82,0-10.41,6.74-10.86,18.67-.16,4.44-.16,9.49-.16,13.92v32.9H295.26V195.43h17.6Zm37.35-41.62h20.36v64.87l30.14-33.51h25.4l-34.89,39,39.17,42.23H405.14l-34.57-37.49v37.49H350.21Zm-258,205.28c-13-6.59-19.58-14.54-19.58-24.79,0-12.7,10.71-23.41,26.32-23.41a33.05,33.05,0,0,1,26.77,13.46l-12.55,12.71c-4.58-4.59-9.17-7.5-14.07-7.5-4.13,0-7.34,1.68-7.34,4.89s2.9,4.44,7.34,6.74l7.5,3.82c13.46,6.88,20.65,13.92,20.65,26,0,14.54-11.47,25.4-29.22,25.4-11.79,0-21.42-4.75-28.46-13.92L82.15,379c4.75,5.5,11.63,9.48,17,9.48,5,0,9-2.91,9-6.58,0-3.52-3.37-6.12-9-9Zm52.35-77.42H165v39.63c7.81-6.74,15.3-10.41,24-10.41,15.31,0,27.85,10,27.85,29.69v53.7H196.47V366.13c0-16.52-2-26.31-13.92-26.31-5.66,0-10.56,2.91-13.77,7.95C164.65,354.2,165,361.54,165,370v34.58H144.6Zm174,71.91c0,23.56-18.21,42.84-43,42.84-23.57,0-42.23-18.82-42.23-42.69a42.51,42.51,0,0,1,42.07-42.84C299.15,321.15,318.59,339.82,318.59,363.84Zm-64.72,0c0,13.77,8.72,23.56,21.88,23.56,12.55,0,22.34-9.18,22.34-23.41,0-13.77-9-23.56-22.34-23.56C263.05,340.43,253.87,350.37,253.87,363.84ZM356.3,332.17c7.34-7.35,15.75-11,25.55-11,21,0,38.41,17.45,38.41,42.84,0,24.94-18.21,42.69-38.87,42.69-10.25,0-17.75-3.68-25.09-10.71v38.25H336V323.29H356.3Zm-.92,31.52c0,14.68,9.79,24.32,22.34,24.32s22-10.25,22-24.17c0-13.32-8.57-24-22-24C364.71,339.82,355.38,349.46,355.38,363.69ZM500,500H0V0H500ZM25.52,474.48h449v-449h-449ZM426.11,100.2H253.87v16.69H426.11Z" id="svg_1" fill="#000" fill-opacity="1"/></g></g></g></svg>
